<svg id="Слой_1" data-name="Слой 1" xmlns="http://www.w3.org/2000/svg" viewBox="0 0 48.5 68.5"><defs><style>.cls-1{fill:#ed7caa;}.cls-2{fill:#b370a8;}.cls-3{fill:#7dccea;}.cls-4{fill:#74bf96;}.cls-5{fill:#f9de7e;}.cls-6{fill:#1d1d1b;}.cls-6,.cls-7{fill-rule:evenodd;}.cls-7{fill:#af1816;}</style></defs><title>Безымянный-1</title><path class="cls-1" d="M662.42,381.15a5.73,5.73,0,1,0,4.79,10.41c2.88-1.32,12.56-8.6,11.24-11.48S665.3,379.82,662.42,381.15Z" transform="translate(-658.54 -350.18)"/><path class="cls-2" d="M671.56,357a7.48,7.48,0,1,0-11.08,10c2.77,3.06,15.63,12.25,18.69,9.48S674.33,360.06,671.56,357Z" transform="translate(-658.54 -350.18)"/><path class="cls-3" d="M692.44,358.06a6.73,6.73,0,1,0-13.26-2.29c-.63,3.66,0,17.87,3.64,18.5S691.81,361.72,692.44,358.06Z" transform="translate(-658.54 -350.18)"/><path class="cls-4" d="M703.84,373.73a6.05,6.05,0,1,0-5.72-10.67c-3,1.58-12.69,9.88-11.11,12.83S700.9,375.31,703.84,373.73Z" transform="translate(-658.54 -350.18)"/><path class="cls-5" d="M699,390.64a5.45,5.45,0,1,0,4.39-10c-2.75-1.21-14-3.52-15.25-.77S696.25,389.43,699,390.64Z" transform="translate(-658.54 -350.18)"/><polygon class="cls-6" points="24.35 28 26.04 28.03 25.53 55.9 23.84 55.87 24.35 28 24.35 28"/><path class="cls-7" d="M682.65,405.87c.33,0,.27-.09.6-.08h.94c5,3.86-3.06,8.1,0,12.88-6.17-4.42-4.89-11.26-1.55-12.81Z" transform="translate(-658.54 -350.18)"/><path class="cls-6" d="M686.68,377.13l-4.9-.09q-.82,8-1.92,16.08H688C687.45,387.79,687,382.46,686.68,377.13Z" transform="translate(-658.54 -350.18)"/></svg>