<svg id="Слой_2" data-name="Слой 2" xmlns="http://www.w3.org/2000/svg" viewBox="0 0 260.3 71.8"><defs><style>.cls-1,.cls-9{fill:#af1816;}.cls-2{font-size:21px;font-family:MonotypeCorsiva, Monotype Corsiva;}.cls-2,.cls-8{fill:#1d1d1b;}.cls-3{fill:#ed7caa;}.cls-4{fill:#b370a8;}.cls-5{fill:#7dccea;}.cls-6{fill:#74bf96;}.cls-7{fill:#f9de7e;}.cls-8,.cls-9{fill-rule:evenodd;}</style></defs><title>logo</title><path class="cls-1" d="M608.63,395.74c-.06-.12-.06-.24-.12-.3-.42.06,0,.42-.18.54a1,1,0,0,1-.6-1.14c.18-1,.3-2,.54-3.06s.66-2.1.9-3.18c.18-.72.24-1.38.36-2.1,0-.06,0-.18-.06-.18-.18-.18-.12-.54-.06-.9s.18-.54.54-.48a2.42,2.42,0,0,1,1.74,1.2c.06.06.06.06.06.12a11.07,11.07,0,0,0-.24,1.38,7.5,7.5,0,0,1-.18,1.14c-.12.42-.3.78-.42,1.2a.45.45,0,0,1-.06.24c.06-.06.06,0,.06-.06a16.14,16.14,0,0,1,2-2.46,8,8,0,0,1,1.26-1.2,1.7,1.7,0,0,1,1-.24,1.85,1.85,0,0,1,.78.12c.18,0,.3.12.48.3-.18,0-.36.06-.48.06v.06c.48.06.72.54,1.26.18.06.3,0,.6.24.72.06,0,0,.18,0,.36a7.86,7.86,0,0,1,.36,1.62,11.65,11.65,0,0,1-.12,1.44,1.28,1.28,0,0,1,0,.48,9.72,9.72,0,0,1,.06,1.32l.18.6c0,.12.18.3.24.36h.18c.06-.06.24-.12,1.26-.66a3.34,3.34,0,0,0,1-.54,5.94,5.94,0,0,0,1-.66.92.92,0,0,0,.36-.24,5,5,0,0,1,.9-.66c-.12-.06-.18-.06-.12-.12a13.84,13.84,0,0,0-1.14.84c-.06-.06-.06-.06-.12-.06a32.5,32.5,0,0,0,5.58-5.94s.06,0,0,.06-.24.3-.3.42-.3.36-.12.54a.19.19,0,0,1-.06.12c-.24.06-.24.06-.42.36h.3a3.18,3.18,0,0,0-.54.66l-.06.78h.06c-.12.3-.12.54-.24.78a2.27,2.27,0,0,1-.6.72l-1,1.2a.76.76,0,0,1-.36.48.3.3,0,0,0,.06.18c-.06.06-.24.06-.24.12a5.57,5.57,0,0,1-1.14,1.26,7.28,7.28,0,0,1-1.44,1.2,6.6,6.6,0,0,1-2.76.78h-.06c-.42-.18-.6-.18-.9-.54a3.47,3.47,0,0,1-1.26-1.74,8.94,8.94,0,0,1-.42-3.42c0-.3.06-.72.06-1.08-.12-.12-.24-.18-.3-.36-.18.66-.42.84-.84.9a1.36,1.36,0,0,1-.84,1c.06.48-.36.54-.54.84s-.42.48-.3.48c.18.42-.36.18-.3.42a.22.22,0,0,1-.18-.06c.06.36-.24.54-.48.66.06.06.12.12.12.18s-.12.12-.12.12l.18.18a17.46,17.46,0,0,0-1,1.8,1,1,0,0,1-.78.48l-.18.42c-.12.06-.12.12-.18.18-.24.48-.48.54-1,.42S608.57,396,608.63,395.74Zm3.72-6.9c.06,0,0,.06,0,.06a1,1,0,0,1-.24.42l.06.06c.24-.12.36-.24.6-.36-.06-.12-.12-.12-.18-.18.12-.06.18-.06.18-.12s.3-.48.6-.36c.06,0,.12-.12.12-.12-.12-.36.12-.48.3-.66.06.06.18.12.18.06a2,2,0,0,1,.36-.36,1,1,0,0,0-1,.18l-.72.78-.9,1.14s.06,0,.06.12Zm1.44.18H614c0-.24-.12-.3-.18-.42-.06.18-.54.18-.3.6a1.24,1.24,0,0,1-.36.12.65.65,0,0,0,.06.36C613.37,389.38,613.79,389.5,613.79,389Zm9.3,2.1a4.09,4.09,0,0,0,.72-.72,2.07,2.07,0,0,0,.48-.54.21.21,0,0,0-.12-.06c-.48.48-.9.9-1.32,1.38.06.06.06.06.12.06A.13.13,0,0,0,623.09,391.12Z" transform="translate(-552.75 -348.06)"/><path class="cls-1" d="M625.91,393.28a5.48,5.48,0,0,0-1-.6,2.65,2.65,0,0,1-.48-2.4c.18-.42.3-.72.42-1.08.06-.06.06-.06.06-.12a11.36,11.36,0,0,1,.36-1.08l.42-.72c.24-.3.36-.6.48-.72a31.7,31.7,0,0,1,2.16-2.64,4.81,4.81,0,0,1,2.88-1.62c1.26.24,2.7.48,2.94,1.86.18.84-.3,1.38-.6,2,.48-.06.9-.54,1.62-.48a1.15,1.15,0,0,1,.72.84,3.07,3.07,0,0,1-.12,1.14c-.06.06-.06.18-.12.3a4.24,4.24,0,0,0,.18,2.58,1.12,1.12,0,0,0,.54.66.51.51,0,0,0,.42,0,3.69,3.69,0,0,0,.66-.18,16.45,16.45,0,0,0,2.76-1.74c.78-.48,1.68-1,2.52-1.62,1.44-.9,1.32-.78,2.7-1.68a10.81,10.81,0,0,1,1.5-1l.18.12-.54.72c.12.3.12.3.48.06,0-.12,0-.36.3-.24a7.85,7.85,0,0,1-2.34,1.92,8.81,8.81,0,0,1-.9.54,2.4,2.4,0,0,1-.72.6c-.06.06-.24.06-.42.12a.19.19,0,0,0-.06-.12.91.91,0,0,0,.36-.24.46.46,0,0,0,.3-.54c0-.06-.12-.12-.18-.12a8.57,8.57,0,0,0-1.2.84,7.38,7.38,0,0,0-1.86,1.14,5.58,5.58,0,0,1-.6.3v.12c.18-.06.36-.06.48-.18a.47.47,0,0,1,.6-.06c0-.06-.06-.12-.06-.18.42-.18.72-.12,1.08-.42a7.65,7.65,0,0,0,1-.6.52.52,0,0,1-.24.42c-.48.24-1,.6-1.44.84a1,1,0,0,0-.36.36,1,1,0,0,1-.42.24,1.17,1.17,0,0,0,.42.06l-.06.06a.87.87,0,0,1-.42.12v.24c.3-.18.72-.36,1-.54v.12a6.06,6.06,0,0,0-1,.78,7.62,7.62,0,0,1-1.62,1.08c-.36.18-.54.12-.84.3a1.76,1.76,0,0,1-.6.18,3.82,3.82,0,0,1-.54.12,5.82,5.82,0,0,1-1,.06c-.12-.06-.48-.06-.6-.18s-.3-.3-.48-.36c-.36-.48-.78-.72-1-1.26-.36-.36-.3-.48-.48-.78-.12-.06-.12-.18-.18-.3-.42.24-.42.84-.84.84-.12.12-.18.3-.3.36a14.38,14.38,0,0,1-2.64,1.74,3.46,3.46,0,0,1-2.88.12A1.49,1.49,0,0,1,625.91,393.28Zm2.7-2a4.76,4.76,0,0,0,1.92-1.38c.9-1,1.32-1.68,2.22-2.64.06,0,.3-.3.3-.3H633c-1.32-.12-.84-2.76-.78-2.82-1.8.3-3.9,3.12-4.56,4.26a12.74,12.74,0,0,0-1.38,3.18A7.6,7.6,0,0,0,628.61,391.3Zm15.6-3.6a.34.34,0,0,1,.24-.36c.06-.12.3-.18.48-.24s.36-.06.48-.12v-.36c.12-.06.18-.18.24-.24s0-.12-.06-.12a4.88,4.88,0,0,1-.72.48,7,7,0,0,0-1.26.9,2.1,2.1,0,0,1,.48.3C644.15,387.94,644.21,387.76,644.21,387.7Z" transform="translate(-552.75 -348.06)"/><path class="cls-1" d="M655.91,386.86a.36.36,0,0,1-.24.06.54.54,0,0,0-.3.06,1.31,1.31,0,0,1,.3.18c-.06.12-.18.12-.3.3s-.18,0-.3,0c.06.24-.06.42-.3.6s-.3.36-.54.24c-.06-.12,0-.3-.06-.42h-.06c0,.06-.06.06-.06.12,0,.24-.06.3-.3.3-.06,0-.18.12-.24.18s-.06.36,0,.36c.24.18.06.24-.06.3l-.6.6a.21.21,0,0,0-.12-.06l.3-.36a.19.19,0,0,1,.06-.12c-.6.3-1,.78-.84,1.08.06-.06.12-.18.18-.18s.3-.06.48-.06c0,.06.06.18,0,.3a.72.72,0,0,0-.48.12c.06.06.06.12.12.24a2.43,2.43,0,0,1,.54-.3c0-.36.24-.54.42-.78a13.19,13.19,0,0,0,1.56-1.62c.06,0,.12-.06.18-.06l.06.06c-.36.48-.72,1-1.2,1.5a7,7,0,0,1-1,.9,3.3,3.3,0,0,1-.42.54.64.64,0,0,0-.12.36,4.2,4.2,0,0,1,.6-.48c-.12.36-.48.54-.84.84a1.31,1.31,0,0,0-.18.3c.06,0,.06,0,.12.06.18-.12.36-.3.6-.48,0,.12.06.18,0,.24a7.19,7.19,0,0,0-.66.72c-.12.12-.18.3-.3.42l-.3.3a5,5,0,0,0-1.26,1.26,3.83,3.83,0,0,1-.9.78,2.34,2.34,0,0,1-1,.42c-.36.18-.78.36-1.2.6a2,2,0,0,1-1.2-.18c-.6-.12-.84-.66-1.26-1-.12-.06-.12-.24-.18-.36a1.31,1.31,0,0,0-.3-.48c-.06-.24-.24-.36-.3-.6a8.77,8.77,0,0,1,.42-3.24,16.75,16.75,0,0,1,.6-2.34c.24-1.08.54-2.1.84-3.24v-.48c-.06-.24,0-.42.24-.42s.36-.18.54.12.6.48.78.78a2.3,2.3,0,0,1,.66.66,1.51,1.51,0,0,1,.06.9,2.52,2.52,0,0,1-.24,1c-.18.72-.42,1.44-.66,2.22a3.67,3.67,0,0,0-.3.72c-.06.12-.12.18-.12.3.18.54-.18,1.08-.24,1.68s-.18,1.08-.24,1.68a4,4,0,0,0,1.68-.84c1-.84,2-1.68,2.94-2.58s1.8-1.8,2.7-2.64c.72-.66,1.5-1.32,2.28-2.1C656.15,386,656.21,386.32,655.91,386.86ZM647.15,380a1.65,1.65,0,0,1-.36-1.5,3.1,3.1,0,0,1,1.74-1.74c.06-.06.3-.06.3-.06.66-.06,1,.13,1.14.54a3,3,0,0,1,.18,1.92,2.9,2.9,0,0,1-1.32,1.38,1.06,1.06,0,0,1-1-.12A3.46,3.46,0,0,1,647.15,380ZM652,390.46c-.6,0-.72.72-1.26,1v.06l1-.36c0-.06-.06-.06-.06-.12s-.12.06-.24.06l-.06-.06A5.41,5.41,0,0,0,652,390.46Zm1.56-.12c.06,0,.06,0,.12.06a4.14,4.14,0,0,1-.24.6c-.06-.06-.18-.12-.24-.24Z" transform="translate(-552.75 -348.06)"/><path class="cls-1" d="M671.45,359.87l.42.18c0,.18-.12.3-.18.48-.12-.06-.12-.18-.18-.24a.22.22,0,0,1-.18.06,2.8,2.8,0,0,1,.3.6c-.6,0-.42.54-.48.78s-.12.66-.24.9c.18.12.48.24.48.3a2.83,2.83,0,0,0-.36,1c.3.36-.3.6-.3,1a.21.21,0,0,0,.06-.12l.12.18c.12.18.12.3-.12.36s-.36.24-.54.48h.48a3.55,3.55,0,0,0-.72,1,4.21,4.21,0,0,1-.36.54c-.12.18,0,.36.06.48a2.28,2.28,0,0,1-.18,1.08.19.19,0,0,0-.12-.06c-.06-.12-.06-.18-.12-.24s-.12.24-.18.3l.18.12v.06c-.24-.06-.42-.06-.48.36,0,.12-.18.3-.24.42s-.12.12-.06.24c.06-.12.3-.3.42-.48.06.36-.12.84-.48.9-.06.06-.24,0-.3.06-.54,1.08-1,2.09-1.44,3a.38.38,0,0,1,0,.36,13.1,13.1,0,0,1-1.32,2c-.06.11-.18.42-.42.17-.06-.06-.18.06-.36.19a.89.89,0,0,1,.42.06,12,12,0,0,0-1,1.44,1.69,1.69,0,0,0-.24-.19l-.06.06a2.21,2.21,0,0,0,.06.3.54.54,0,0,0-.3.06h-.12c-.24.48-1,.54-.78,1.27a3.92,3.92,0,0,1-.84,0c-.24.29.3.29.36.71-.12-.06-.18,0-.18,0-.3.25-.3.54-.48.72l-1.2,1.14a30.19,30.19,0,0,1-2.4,2.4,8.1,8.1,0,0,0-.72,2.4,23.63,23.63,0,0,0-.3,3.6,11.83,11.83,0,0,0,.78,4.14,3.48,3.48,0,0,0,1.2,1.62c1,.42,1.5,0,2.46-.66,1-.42.3,2-1,2.34a3.17,3.17,0,0,1-2.4-.24,3.5,3.5,0,0,1-.9-.66c-.3-.36-.54-.72-.9-1.14a8,8,0,0,1-.66-1.44,14.26,14.26,0,0,1-.42-1.86,16.84,16.84,0,0,1,0-4.26,28.31,28.31,0,0,1,.48-3.78l.36-2a2.7,2.7,0,0,1,.12-.84c.18-.66.24-1,.42-1.8a20.88,20.88,0,0,1,.6-2.27c.24-.91.6-1.87.84-2.71.24-.41.42-.95.66-1.43a4,4,0,0,1,.36-1.09c.06-.11.18-.17.18-.29l.3.84a8,8,0,0,1,.36-.72,10.11,10.11,0,0,1,.72-1.68c.06-.3.3-.78.24-1-.12-.42,0-.42.24-.48a.12.12,0,0,0,.12-.12c.24-.48.42-1,.66-1.44-.3-.12-.48-.12-.6.24a2.8,2.8,0,0,0-.3.6.55.55,0,0,0-.18.3c-.12-.06-.24-.06-.24-.18a.6.6,0,0,0,.3-.24,3.21,3.21,0,0,0,.36-.84,9.27,9.27,0,0,0,.42-1.38,3.18,3.18,0,0,0,.48-1c.06-.12.18-.12.24-.24.3.06.42.24.42.6s-.42.54-.66.78a1.31,1.31,0,0,0-.18.3.36.36,0,0,1,.24.06,2.1,2.1,0,0,0-.12.6c.54-1.2,1.08-2.16,1.62-3.24-.24.3-.24.3-.78.3-.12,0-.12.12-.18.12a1.49,1.49,0,0,1,.06-.48c.6-1,1.2-2.28,1.92-3.36a9.39,9.39,0,0,1,1.5-2.1c.54-.48,1.08-1,1.56-1.5.66-.66,1.38-.48,2.22-.24a8,8,0,0,1,.72.36,2.7,2.7,0,0,1,.84.6l.36.3a.18.18,0,0,1,0,.24,4.46,4.46,0,0,0,.18,1.08C671.33,359.21,671.63,359.57,671.45,359.87ZM658,376.66a4.08,4.08,0,0,1,.9-2.21,1.22,1.22,0,0,1-.3.06c.18-.25,0-.73.42-.6.06.06.12-.06.12-.06a2,2,0,0,1,.3-.61l-.42-.17a62.9,62.9,0,0,0-2.88,9.05c.06,0,0,.6.06.6.12-.36.06-.78.18-1.14.36-1.19.84-2.46,1.2-3.84A5.17,5.17,0,0,1,658,376.66Zm-.6,3.6a8,8,0,0,0-.54,2.22A10.84,10.84,0,0,0,657.41,380.26Zm12.9-20.45c.24-.42.18-.48-.24-.54a6.05,6.05,0,0,0,.24,1.2c-.12.18-.24.3-.3.42a11.52,11.52,0,0,1-.18,1.32c-.12.36-.12.78-.48,1.08-.12.06,0,.24,0,.36s.06.18.12.3h-.12c-.12.12-.42.36-.42.48a1,1,0,0,1-.12.72c-.12.12-.12.3-.18.54a.72.72,0,0,1-.3.3c-.24.66-.48,1.2-.6,1.68a2.77,2.77,0,0,0-.6,1.86c-.18-.36-.18-.24-.3,0a1,1,0,0,1-.12.3c-.3.6-.66,1.2-1,1.74-.48.84-1,1.67-1.44,2.46a.94.94,0,0,0-.3.54c-.18.17-.24.42-.42.53s-.12.12-.18.12a5.13,5.13,0,0,1-.84,1.15c-.06.18-.42.6-.42.71a3.79,3.79,0,0,1-.78.9,4.89,4.89,0,0,0-.66,1,13.63,13.63,0,0,0-1.56,1.68,6.79,6.79,0,0,1-.6.78,1.91,1.91,0,0,0,.9-.6,6.43,6.43,0,0,0,1.2-1.32c.78-.6,1.38-1.44,2-2l.54-.66c.24-.3.48-.79.78-1.15.42-.71.9-1.44,1.38-2.15.24-.25.6-.31.54-.79.36-.11.48-.48.6-.77.24-.73.66-1.26,1-2,.18-.24.24-.54.42-.78a2.87,2.87,0,0,1,.3-.66,1,1,0,0,1-.36-.36,2.72,2.72,0,0,0,.48-.12,1.26,1.26,0,0,1-.24-.36c.18-.06.3,0,.54-.06a1.59,1.59,0,0,1-.36-.3,5,5,0,0,0,.78-.42c0-.06,0-.06-.06-.12a.89.89,0,0,1-.42-.06c.72-.6,1.08-1.56.78-1.92a2.69,2.69,0,0,0,.42-1.08c0-.42.06-.66.54-.78l-.48-.18c.06-.06.06-.12.18-.18h.3c-.3-.24-.3-.42-.06-.84a8.87,8.87,0,0,0,.06-1.32A2.43,2.43,0,0,0,670.31,359.81Zm-11,12.18c-.24-.73.12-1.38.6-1.38A13.73,13.73,0,0,1,659.27,372Zm.36,5.63a7.07,7.07,0,0,0-.36.73c-.06.35,0,.77-.06,1.13l1.44-1.61c.72-.9,1.56-2,2.22-2.94a10.3,10.3,0,0,0,1.26-1.63c.48-.71.84-1.43,1.32-2.21.54-1.2,1.08-2.22,1.68-3.48a23.2,23.2,0,0,0,1.14-2.94,13.77,13.77,0,0,0,.84-3.18,25.16,25.16,0,0,0,.66-3.06.45.45,0,0,1-.24-.06l-.42.36a1.26,1.26,0,0,1-.24.36,8.23,8.23,0,0,0-1.5,1.74,8,8,0,0,0-1.38,2.1,9.29,9.29,0,0,1-1.26,2.1c-.3.6-.72,1.2-1,1.8a20.73,20.73,0,0,0-.84,2,8,8,0,0,1-.36.72A12.5,12.5,0,0,0,662,371a3.17,3.17,0,0,0-.36,1.08c-.12.36-.06.6-.18.9a17.71,17.71,0,0,1-.84,2A19.63,19.63,0,0,1,659.63,377.62Zm4.26-15.17c.06,0,.12.24.18.36a.76.76,0,0,0-.36-.06v.54h.12c.12-.18.12-.36.24-.48s.3-.3.42-.48c.48-.84,1-1.5,1.56-2.34a2.39,2.39,0,0,1,.42-.78.6.6,0,0,0-.06-.18,6.35,6.35,0,0,0-.6.72c-.24.54-.72.9-.9,1.5-.06.12-.24.18-.36.3s-.12.12-.18.24a3.62,3.62,0,0,1-.48.48l-.42.24C663.65,362.51,663.83,362.39,663.89,362.45Zm2.58,11.33-.54-.17c-.3.48-.66,1.07-1,1.55.6-.11.48-1.13,1.5-.9l-.54-.23c0-.06,0-.06.06-.06s.3-.06.54-.12Zm2.46-5.51c-.84,1.5-1.62,3.06-2.34,4.56h.06a6.88,6.88,0,0,0,.48-.84c.18-.3.3-.66.48-1a5,5,0,0,0,.54-1,6.11,6.11,0,0,0,.48-.9,2.25,2.25,0,0,0,.3-.84Z" transform="translate(-552.75 -348.06)"/><path class="cls-1" d="M678.71,387.82c-.48-.18-.66-.36-1.26-.18a18.87,18.87,0,0,0-2.64-.18.47.47,0,0,0-.36.18,8.83,8.83,0,0,0-1.68-.06c-1,0-.84,0-1.86.06s-2,0-3,0-.3-1.26.42-1.86c2.7-.06,4.44-.12,7.14,0a12,12,0,0,1,3.24.42,1.57,1.57,0,0,1,.78.36c.24.18.18.72.18,1a.28.28,0,0,1-.3.3C679.19,387.82,678.89,387.88,678.71,387.82Zm-8.7-.9c-.24-.18-.84,0-.6,0A2,2,0,0,1,670,386.92Zm5.1-.78h-1.44l.06.06a15.75,15.75,0,0,0,2.16.12Zm4.26,1.38a2.69,2.69,0,0,0-.72.06A.65.65,0,0,0,679.37,387.52Z" transform="translate(-552.75 -348.06)"/><path class="cls-1" d="M683,395.74c-.06-.12-.06-.24-.12-.3-.42.06,0,.42-.18.54a1,1,0,0,1-.6-1.14c.18-1,.3-2,.54-3.06s.66-2.1.9-3.18c.18-.72.24-1.38.36-2.1,0-.06,0-.18-.06-.18-.18-.18-.12-.54-.06-.9s.18-.54.54-.48a2.42,2.42,0,0,1,1.74,1.2c.06.06.06.06.06.12a11.07,11.07,0,0,0-.24,1.38,7.5,7.5,0,0,1-.18,1.14c-.12.42-.3.78-.42,1.2a.45.45,0,0,1-.06.24c.06-.06.06,0,.06-.06a16.14,16.14,0,0,1,2-2.46,8,8,0,0,1,1.26-1.2,1.7,1.7,0,0,1,1-.24,1.85,1.85,0,0,1,.78.12c.18,0,.3.12.48.3-.18,0-.36.06-.48.06v.06c.48.06.72.54,1.26.18.06.3,0,.6.24.72.06,0,0,.18,0,.36a7.86,7.86,0,0,1,.36,1.62,11.65,11.65,0,0,1-.12,1.44,1.28,1.28,0,0,1,0,.48,9.72,9.72,0,0,1,.06,1.32l.18.6c0,.12.18.3.24.36h.18c.06-.06.24-.12,1.26-.66a3.34,3.34,0,0,0,1-.54,5.94,5.94,0,0,0,1-.66.92.92,0,0,0,.36-.24,5,5,0,0,1,.9-.66c-.12-.06-.18-.06-.12-.12a13.84,13.84,0,0,0-1.14.84c-.06-.06-.06-.06-.12-.06a32.5,32.5,0,0,0,5.58-5.94s.06,0,0,.06-.24.3-.3.42-.3.36-.12.54a.19.19,0,0,1-.06.12c-.24.06-.24.06-.42.36h.3a3.18,3.18,0,0,0-.54.66l-.06.78h.06c-.12.3-.12.54-.24.78a2.27,2.27,0,0,1-.6.72l-1,1.2a.76.76,0,0,1-.36.48.3.3,0,0,0,.06.18c-.06.06-.24.06-.24.12a5.57,5.57,0,0,1-1.14,1.26,7.28,7.28,0,0,1-1.44,1.2,6.6,6.6,0,0,1-2.76.78h-.06c-.42-.18-.6-.18-.9-.54a3.47,3.47,0,0,1-1.26-1.74,8.94,8.94,0,0,1-.42-3.42c0-.3.06-.72.06-1.08-.12-.12-.24-.18-.3-.36-.18.66-.42.84-.84.9a1.36,1.36,0,0,1-.84,1c.06.48-.36.54-.54.84s-.42.48-.3.48c.18.42-.36.18-.3.42a.22.22,0,0,1-.18-.06c.06.36-.24.54-.48.66.06.06.12.12.12.18s-.12.12-.12.12l.18.18a17.46,17.46,0,0,0-1,1.8,1,1,0,0,1-.78.48l-.18.42c-.12.06-.12.12-.18.18-.24.48-.48.54-1,.42S683,396,683,395.74Zm3.72-6.9c.06,0,0,.06,0,.06a1,1,0,0,1-.24.42l.06.06c.24-.12.36-.24.6-.36-.06-.12-.12-.12-.18-.18.12-.06.18-.06.18-.12s.3-.48.6-.36c.06,0,.12-.12.12-.12-.12-.36.12-.48.3-.66.06.06.18.12.18.06a2,2,0,0,1,.36-.36,1,1,0,0,0-1,.18l-.72.78-.9,1.14s.06,0,.06.12Zm1.44.18h.18c0-.24-.12-.3-.18-.42-.06.18-.54.18-.3.6a1.24,1.24,0,0,1-.36.12.65.65,0,0,0,.06.36C687.77,389.38,688.19,389.5,688.19,389Zm9.3,2.1a4.09,4.09,0,0,0,.72-.72,2.07,2.07,0,0,0,.48-.54.21.21,0,0,0-.12-.06c-.48.48-.9.9-1.32,1.38.06.06.06.06.12.06A.13.13,0,0,0,697.49,391.12Z" transform="translate(-552.75 -348.06)"/><path class="cls-1" d="M700.31,393.28a5.48,5.48,0,0,0-1-.6,2.65,2.65,0,0,1-.48-2.4c.18-.42.3-.72.42-1.08.06-.06.06-.06.06-.12a11.36,11.36,0,0,1,.36-1.08l.42-.72c.24-.3.36-.6.48-.72a31.7,31.7,0,0,1,2.16-2.64,4.81,4.81,0,0,1,2.88-1.62c1.26.24,2.7.48,2.94,1.86.18.84-.3,1.38-.6,2,.48-.06.9-.54,1.62-.48a1.15,1.15,0,0,1,.72.84,3.07,3.07,0,0,1-.12,1.14c-.06.06-.06.18-.12.3a4.24,4.24,0,0,0,.18,2.58,1.12,1.12,0,0,0,.54.66.51.51,0,0,0,.42,0,3.69,3.69,0,0,0,.66-.18,16.45,16.45,0,0,0,2.76-1.74c.78-.48,1.68-1,2.52-1.62,1.44-.9,1.32-.78,2.7-1.68a10.81,10.81,0,0,1,1.5-1l.18.12-.54.72c.12.3.12.3.48.06,0-.12,0-.36.3-.24a7.85,7.85,0,0,1-2.34,1.92,8.81,8.81,0,0,1-.9.54,2.4,2.4,0,0,1-.72.6c-.06.06-.24.06-.42.12a.19.19,0,0,0-.06-.12.91.91,0,0,0,.36-.24.46.46,0,0,0,.3-.54c0-.06-.12-.12-.18-.12a8.57,8.57,0,0,0-1.2.84,7.38,7.38,0,0,0-1.86,1.14,5.58,5.58,0,0,1-.6.3v.12c.18-.06.36-.06.48-.18a.47.47,0,0,1,.6-.06c0-.06-.06-.12-.06-.18.42-.18.72-.12,1.08-.42a7.65,7.65,0,0,0,1-.6.52.52,0,0,1-.24.42c-.48.24-1,.6-1.44.84a1,1,0,0,0-.36.36,1,1,0,0,1-.42.24,1.17,1.17,0,0,0,.42.06l-.06.06a.87.87,0,0,1-.42.12v.24c.3-.18.72-.36,1-.54v.12a6.06,6.06,0,0,0-1,.78,7.62,7.62,0,0,1-1.62,1.08c-.36.18-.54.12-.84.3a1.76,1.76,0,0,1-.6.18,3.82,3.82,0,0,1-.54.12,5.82,5.82,0,0,1-1,.06c-.12-.06-.48-.06-.6-.18s-.3-.3-.48-.36c-.36-.48-.78-.72-1-1.26-.36-.36-.3-.48-.48-.78-.12-.06-.12-.18-.18-.3-.42.24-.42.84-.84.84-.12.12-.18.3-.3.36a14.38,14.38,0,0,1-2.64,1.74,3.46,3.46,0,0,1-2.88.12A1.49,1.49,0,0,1,700.31,393.28Zm2.7-2a4.76,4.76,0,0,0,1.92-1.38c.9-1,1.32-1.68,2.22-2.64.06,0,.3-.3.3-.3h-.06c-1.32-.12-.84-2.76-.78-2.82-1.8.3-3.9,3.12-4.56,4.26a12.74,12.74,0,0,0-1.38,3.18A7.6,7.6,0,0,0,703,391.3Zm15.6-3.6a.34.34,0,0,1,.24-.36c.06-.12.3-.18.48-.24s.36-.06.48-.12v-.36c.12-.06.18-.18.24-.24s0-.12-.06-.12a4.88,4.88,0,0,1-.72.48,7,7,0,0,0-1.26.9,2.1,2.1,0,0,1,.48.3C718.55,387.94,718.61,387.76,718.61,387.7Z" transform="translate(-552.75 -348.06)"/><path class="cls-1" d="M731.45,375.89c-.18,0-.6-.06-.66-.25-.42-.65-2.64-1.19-3.54-1.25-.18-.13-.36-.13-1-.25a.69.69,0,0,0-.06.31l-.66,2a.79.79,0,0,0-.36.84c.06.12-.06.23-.18.41a1.16,1.16,0,0,1-.36.9c0,.12-.12.25-.06.36s.12.37-.24.48c-.06,0,0,.12,0,.24a9.75,9.75,0,0,0-.24,1.14,6.73,6.73,0,0,0-.3.78c-.12.6-.42,1.2-.48,1.74a2.56,2.56,0,0,0-.36,1.08,11.88,11.88,0,0,0-.48,2,2.82,2.82,0,0,1-.36.54c.18.3,0,.66,0,1,0,.12-.18.36-.18.54a1.53,1.53,0,0,0-.06.72,4.26,4.26,0,0,0-.24,1.44.46.46,0,0,1-.12.3c-.06,0,0,.06.12.12a2.8,2.8,0,0,1-.3.6c.24.3.3,1.38,0,1.44.12.12.3.18.06.3.24.06.24.24.24.48a3.06,3.06,0,0,0,.18,1.26,1.06,1.06,0,0,0,.36.78l.42.48c.54.3.6.36,1.14.3a2.74,2.74,0,0,0,1.2-.3c.18.6-.36,1-.66,1.44-.12.18-.24.24-.6.24h.12a2.26,2.26,0,0,1-1.92-.42c-.54-.18-.78-.54-1.26-1.08a2.61,2.61,0,0,0-.36-.42,8.92,8.92,0,0,1-1.14-3.36,12.51,12.51,0,0,1,.06-3.66,8.92,8.92,0,0,1,.3-2.16l.42-1.68c.24-.66.24-1.32.48-2.1,0-.24.18-.42.3-.72h.12c-.06-.06-.06-.18-.12-.24l1.92-6,.72-2.15.18-.48c-.3-.12-.66-.24-1-.37l-1-.17c-.3.06-.66-.24-.9-.48-.06-.06-.18-.06-.3-.12s-.18.06-.36-.42a1.05,1.05,0,0,1-.12-.84c.18-.48.84-.54,1.38-.54,1.32.3,2,.42,2.88.59l.36.13a2.54,2.54,0,0,1,.36-.84c.18-.6.42-1.14.66-1.74s.54-1.26.72-2,.42-1.32.78-2c0-.24.18-.36.36-.66s.36-1,.48-1.44.3-.42.54-.36c.06.12.18.12.3.18.48.3,1,.42,1.08.9.06.18.3.3.42.48.48.3.3.6.12,1a26.94,26.94,0,0,1-1.56,3.24,14.31,14.31,0,0,1-1,2.28,10.68,10.68,0,0,1-.72,1.74h-.24a14.18,14.18,0,0,1,3.12,1.07,1.27,1.27,0,0,1,.54.54l1,1.09C731.45,375.28,731.81,375.22,731.45,375.89Zm-12,14.75.36-2.52c.06-.72.36-1.5.42-2.22.24-.84.48-1.5.66-2.34.12-.6.42-1.26.6-1.92s.36-1.2.42-1.79a25.46,25.46,0,0,0,1.08-3l.18-.55a.6.6,0,0,0,.18-.77c-.12.17-.48.9-.48.9-.12.17-.18.48-.24.54a14.39,14.39,0,0,1-.6,2.15c-.36.73-.48,1.44-.78,2.23l-.54,1.67c-.12.72-.3,1.32-.42,2s-.42,1.44-.6,2.16c-.12.48-.06,1-.24,1.5a10.55,10.55,0,0,1,0,1.38c-.12.18,0,.42,0,.6s-.3.72.06,1A2.6,2.6,0,0,0,719.45,390.64Zm5.46-15.17-.36.54a.92.92,0,0,1-.3.36c-.66,1.79-1.2,4.07-1.86,6-.06-.06-.12-.06-.12-.12s.06-.3-.06-.36c-.18-.53.42-.84.36-1.32-.12-.12.12-.42.12-.42a6.35,6.35,0,0,0,.6-1.67,1.6,1.6,0,0,1,.3-.67c.12-.12.12-.12.12-.29V377l.24-.67.54-.77a.45.45,0,0,0-.24.06,3.31,3.31,0,0,0,.78-1.74l-.3-.07a.21.21,0,0,1-.06.13c-.06.29-.3.66-.18,1h-.24a4.12,4.12,0,0,1-.36,1.13l-.24.37a6.34,6.34,0,0,0-.3,1.25,1.89,1.89,0,0,0-.42,1,16.31,16.31,0,0,1-.66,1.5,2.62,2.62,0,0,1-.42,1.26c-.18.3,0,.54-.24.84a2.22,2.22,0,0,0-.24.9c.06.18-.06.3-.18.48a1.07,1.07,0,0,0-.24.78,1.55,1.55,0,0,1-.42,1.32c0,.06-.12.12,0,.12.18.36,0,.36-.06.48l.12.24a.48.48,0,0,0-.3.36c-.18.48-.18.9-.36,1.32a.21.21,0,0,1,.06.12c-.06.12.12.24-.06.36s.06.36.12.54.06.06.12.12c-.42.24-.24.66-.36,1.08a5.12,5.12,0,0,0,0,1c0,.12-.12.24-.06.42a1.2,1.2,0,0,1,.06,1.26.51.51,0,0,0,.18.3c.06-.06.06-.06.12-.06a10.59,10.59,0,0,0,0-1.38c0-.54.06-1,.06-1.5,0-.24.12-.6.12-.78a1.75,1.75,0,0,0,.12-.54c-.06-.12.06-.3-.06-.48s0-.3.24-.42a.13.13,0,0,1-.12-.12.41.41,0,0,1,.18-.24,4,4,0,0,1,.18-1.44.21.21,0,0,0,.06-.12,3.16,3.16,0,0,1,.3-.9c0-.06-.06-.24,0-.3a9.93,9.93,0,0,0,.36-1.26h.12c0-.12-.12-.18-.12-.36a2,2,0,0,0,.36-.18c-.3-.12-.3-.12,0-.3a.21.21,0,0,0-.12-.06c-.12-.36.42-.36.48-.66,0,.12.06.18.06.3a6.93,6.93,0,0,0-.6,2,5.11,5.11,0,0,0-.36,1c-.06.24-.12.36-.06.54.06,0,.18,0,.18.06s-.18.06-.18.12a5.88,5.88,0,0,0-.42,1.62,2,2,0,0,0-.12,1.2H721a1.75,1.75,0,0,1-.12-.54,12.16,12.16,0,0,0,.48-1.86.83.83,0,0,1,.24-.18c.18-.06.24-.06.24-.12s-.18-.24-.36-.24a.65.65,0,0,0,.06-.36c.12.12.3.18.36.3.24-.3-.3-.3-.36-.42a1.64,1.64,0,0,1,.24-.3,5.08,5.08,0,0,0,.24-1v-.18c.3-.12.18-.3.12-.54l.24-.06c0-.18-.06-.3,0-.42a3.82,3.82,0,0,0,.12-.42l.24.36a1,1,0,0,1,.06-.42h-.3a5.06,5.06,0,0,0,.36-.84,1.05,1.05,0,0,1,.3.24,3.28,3.28,0,0,1,.18-.83c.06-.25.12-.49-.18-.55.06-.12.18-.24.12-.3-.12-.54.42-1,.54-1.5a20,20,0,0,0,.54-2A12.58,12.58,0,0,0,724.91,375.47Zm-3.66,14.21c-.36,0-.12.48-.54.48l-.12-.18a.19.19,0,0,1-.06.12,5,5,0,0,1-.12.78,4.85,4.85,0,0,1-.06.9l.06-.06.48-.48c-.12.18-.12.24-.18.3a.36.36,0,0,1,.24.06,3.17,3.17,0,0,0,.06-.72h-.12v.18c0,.06-.18.12-.3.18.06-.12-.06-.3.06-.3s.18-.18.42-.42C721,390.34,721.19,390,721.25,389.68Zm-.18,2.88a.21.21,0,0,1,.12-.06.83.83,0,0,0-.24-.18c-.06.24-.18.48-.24.72s.3.36.24.54H721c.18-.18.06-.42.06-.54A.66.66,0,0,1,721.07,392.56Zm1.56-8.82h-.18c-.12.36-.12.66-.24,1,.24-.18.42-.3.42-.48S722.51,383.86,722.63,383.74Zm2.82-9.11c0-.12-.06-.12-.12-.18s-.06.06-.18.12l-.24.78H725Z" transform="translate(-552.75 -348.06)"/><path class="cls-1" d="M728.81,393.28a5.48,5.48,0,0,0-1-.6,2.65,2.65,0,0,1-.48-2.4c.18-.42.3-.72.42-1.08.06-.06.06-.06.06-.12a11.36,11.36,0,0,1,.36-1.08l.42-.72c.24-.3.36-.6.48-.72a31.7,31.7,0,0,1,2.16-2.64,4.81,4.81,0,0,1,2.88-1.62c1.26.24,2.7.48,2.94,1.86.18.84-.3,1.38-.6,2,.48-.06.9-.54,1.62-.48a1.15,1.15,0,0,1,.72.84,3.07,3.07,0,0,1-.12,1.14c-.06.06-.06.18-.12.3a4.24,4.24,0,0,0,.18,2.58,1.12,1.12,0,0,0,.54.66.51.51,0,0,0,.42,0,3.69,3.69,0,0,0,.66-.18,16.45,16.45,0,0,0,2.76-1.74c.78-.48,1.68-1,2.52-1.62,1.44-.9,1.32-.78,2.7-1.68a10.81,10.81,0,0,1,1.5-1l.18.12-.54.72c.12.3.12.3.48.06,0-.12,0-.36.3-.24a7.85,7.85,0,0,1-2.34,1.92,8.81,8.81,0,0,1-.9.54,2.4,2.4,0,0,1-.72.6c-.06.06-.24.06-.42.12a.19.19,0,0,0-.06-.12.91.91,0,0,0,.36-.24.46.46,0,0,0,.3-.54c0-.06-.12-.12-.18-.12a8.57,8.57,0,0,0-1.2.84,7.38,7.38,0,0,0-1.86,1.14,5.58,5.58,0,0,1-.6.3v.12c.18-.06.36-.06.48-.18a.47.47,0,0,1,.6-.06c0-.06-.06-.12-.06-.18.42-.18.72-.12,1.08-.42a7.65,7.65,0,0,0,1-.6.52.52,0,0,1-.24.42c-.48.24-1,.6-1.44.84a1,1,0,0,0-.36.36,1,1,0,0,1-.42.24,1.17,1.17,0,0,0,.42.06l-.06.06a.87.87,0,0,1-.42.12v.24c.3-.18.72-.36,1-.54v.12a6.06,6.06,0,0,0-1,.78,7.62,7.62,0,0,1-1.62,1.08c-.36.18-.54.12-.84.3a1.76,1.76,0,0,1-.6.18,3.82,3.82,0,0,1-.54.12,5.82,5.82,0,0,1-1,.06c-.12-.06-.48-.06-.6-.18s-.3-.3-.48-.36c-.36-.48-.78-.72-1-1.26-.36-.36-.3-.48-.48-.78-.12-.06-.12-.18-.18-.3-.42.24-.42.84-.84.84-.12.12-.18.3-.3.36a14.38,14.38,0,0,1-2.64,1.74,3.46,3.46,0,0,1-2.88.12A1.49,1.49,0,0,1,728.81,393.28Zm2.7-2a4.76,4.76,0,0,0,1.92-1.38c.9-1,1.32-1.68,2.22-2.64.06,0,.3-.3.3-.3h-.06c-1.32-.12-.84-2.76-.78-2.82-1.8.3-3.9,3.12-4.56,4.26a12.74,12.74,0,0,0-1.38,3.18A7.6,7.6,0,0,0,731.51,391.3Zm15.6-3.6a.34.34,0,0,1,.24-.36c.06-.12.3-.18.48-.24s.36-.06.48-.12v-.36c.12-.06.18-.18.24-.24s0-.12-.06-.12a4.88,4.88,0,0,1-.72.48,7,7,0,0,0-1.26.9,2.1,2.1,0,0,1,.48.3C747.05,387.94,747.11,387.76,747.11,387.7Z" transform="translate(-552.75 -348.06)"/><path class="cls-1" d="M764,359.87l.42.18c0,.18-.12.3-.18.48-.12-.06-.12-.18-.18-.24a.22.22,0,0,1-.18.06,2.8,2.8,0,0,1,.3.6c-.6,0-.42.54-.48.78s-.12.66-.24.9c.18.12.48.24.48.3a2.83,2.83,0,0,0-.36,1c.3.36-.3.6-.3,1a.21.21,0,0,0,.06-.12l.12.18c.12.18.12.3-.12.36s-.36.24-.54.48h.48a3.55,3.55,0,0,0-.72,1,4.21,4.21,0,0,1-.36.54c-.12.18,0,.36.06.48a2.28,2.28,0,0,1-.18,1.08.19.19,0,0,0-.12-.06c-.06-.12-.06-.18-.12-.24s-.12.24-.18.3l.18.12v.06c-.24-.06-.42-.06-.48.36,0,.12-.18.3-.24.42s-.12.12-.06.24c.06-.12.3-.3.42-.48.06.36-.12.84-.48.9-.06.06-.24,0-.3.06-.54,1.08-1,2.09-1.44,3a.38.38,0,0,1,0,.36,13.1,13.1,0,0,1-1.32,2c-.06.11-.18.42-.42.17-.06-.06-.18.06-.36.19a.89.89,0,0,1,.42.06,12,12,0,0,0-1,1.44,1.69,1.69,0,0,0-.24-.19l-.06.06a2.21,2.21,0,0,0,.06.3.54.54,0,0,0-.3.06H756c-.24.48-1,.54-.78,1.27a3.92,3.92,0,0,1-.84,0c-.24.29.3.29.36.71-.12-.06-.18,0-.18,0-.3.25-.3.54-.48.72l-1.2,1.14a30.19,30.19,0,0,1-2.4,2.4,8.1,8.1,0,0,0-.72,2.4,23.63,23.63,0,0,0-.3,3.6,11.83,11.83,0,0,0,.78,4.14,3.48,3.48,0,0,0,1.2,1.62c1,.42,1.5,0,2.46-.66,1-.42.3,2-1,2.34a3.17,3.17,0,0,1-2.4-.24,3.5,3.5,0,0,1-.9-.66c-.3-.36-.54-.72-.9-1.14a8,8,0,0,1-.66-1.44,14.26,14.26,0,0,1-.42-1.86,16.84,16.84,0,0,1,0-4.26,28.31,28.31,0,0,1,.48-3.78l.36-2a2.7,2.7,0,0,1,.12-.84c.18-.66.24-1,.42-1.8a20.88,20.88,0,0,1,.6-2.27c.24-.91.6-1.87.84-2.71.24-.41.42-.95.66-1.43a4,4,0,0,1,.36-1.09c.06-.11.18-.17.18-.29l.3.84a8,8,0,0,1,.36-.72,10.11,10.11,0,0,1,.72-1.68c.06-.3.3-.78.24-1-.12-.42,0-.42.24-.48a.12.12,0,0,0,.12-.12c.24-.48.42-1,.66-1.44-.3-.12-.48-.12-.6.24a2.8,2.8,0,0,0-.3.6.55.55,0,0,0-.18.3c-.12-.06-.24-.06-.24-.18a.6.6,0,0,0,.3-.24,3.21,3.21,0,0,0,.36-.84,9.27,9.27,0,0,0,.42-1.38,3.18,3.18,0,0,0,.48-1c.06-.12.18-.12.24-.24.3.06.42.24.42.6s-.42.54-.66.78a1.31,1.31,0,0,0-.18.3.36.36,0,0,1,.24.06,2.1,2.1,0,0,0-.12.6c.54-1.2,1.08-2.16,1.62-3.24-.24.3-.24.3-.78.3-.12,0-.12.12-.18.12a1.49,1.49,0,0,1,.06-.48c.6-1,1.2-2.28,1.92-3.36a9.39,9.39,0,0,1,1.5-2.1c.54-.48,1.08-1,1.56-1.5.66-.66,1.38-.48,2.22-.24a8,8,0,0,1,.72.36,2.7,2.7,0,0,1,.84.6l.36.3a.18.18,0,0,1,0,.24,4.46,4.46,0,0,0,.18,1.08C763.91,359.21,764.21,359.57,764,359.87Zm-13.44,16.79a4.08,4.08,0,0,1,.9-2.21,1.22,1.22,0,0,1-.3.06c.18-.25,0-.73.42-.6.06.06.12-.06.12-.06a2,2,0,0,1,.3-.61l-.42-.17a62.9,62.9,0,0,0-2.88,9.05c.06,0,0,.6.06.6.12-.36.06-.78.18-1.14.36-1.19.84-2.46,1.2-3.84A5.17,5.17,0,0,1,750.59,376.66Zm-.6,3.6a8,8,0,0,0-.54,2.22A10.84,10.84,0,0,0,750,380.26Zm12.9-20.45c.24-.42.18-.48-.24-.54a6.05,6.05,0,0,0,.24,1.2c-.12.18-.24.3-.3.42a11.52,11.52,0,0,1-.18,1.32c-.12.36-.12.78-.48,1.08-.12.06,0,.24,0,.36s.06.18.12.3h-.12c-.12.12-.42.36-.42.48a1,1,0,0,1-.12.72c-.12.12-.12.3-.18.54a.72.72,0,0,1-.3.3c-.24.66-.48,1.2-.6,1.68a2.77,2.77,0,0,0-.6,1.86c-.18-.36-.18-.24-.3,0a1,1,0,0,1-.12.3c-.3.6-.66,1.2-1,1.74-.48.84-1,1.67-1.44,2.46a.94.94,0,0,0-.3.54c-.18.17-.24.42-.42.53s-.12.12-.18.12a5.13,5.13,0,0,1-.84,1.15c-.06.18-.42.6-.42.71a3.79,3.79,0,0,1-.78.9,4.89,4.89,0,0,0-.66,1,13.63,13.63,0,0,0-1.56,1.68,6.79,6.79,0,0,1-.6.78,1.91,1.91,0,0,0,.9-.6,6.43,6.43,0,0,0,1.2-1.32c.78-.6,1.38-1.44,2-2l.54-.66c.24-.3.48-.79.78-1.15.42-.71.9-1.44,1.38-2.15.24-.25.6-.31.54-.79.36-.11.48-.48.6-.77.24-.73.66-1.26,1-2,.18-.24.24-.54.42-.78a2.87,2.87,0,0,1,.3-.66,1,1,0,0,1-.36-.36,2.72,2.72,0,0,0,.48-.12,1.26,1.26,0,0,1-.24-.36c.18-.06.3,0,.54-.06a1.59,1.59,0,0,1-.36-.3,5,5,0,0,0,.78-.42c0-.06,0-.06-.06-.12a.89.89,0,0,1-.42-.06c.72-.6,1.08-1.56.78-1.92a2.69,2.69,0,0,0,.42-1.08c0-.42.06-.66.54-.78l-.48-.18c.06-.06.06-.12.18-.18h.3c-.3-.24-.3-.42-.06-.84a8.87,8.87,0,0,0,.06-1.32A2.43,2.43,0,0,0,762.89,359.81Zm-11,12.18c-.24-.73.12-1.38.6-1.38A13.73,13.73,0,0,1,751.85,372Zm.36,5.63a7.07,7.07,0,0,0-.36.73c-.06.35,0,.77-.06,1.13l1.44-1.61c.72-.9,1.56-2,2.22-2.94a10.3,10.3,0,0,0,1.26-1.63c.48-.71.84-1.43,1.32-2.21.54-1.2,1.08-2.22,1.68-3.48a23.2,23.2,0,0,0,1.14-2.94,13.77,13.77,0,0,0,.84-3.18,25.16,25.16,0,0,0,.66-3.06.45.45,0,0,1-.24-.06l-.42.36a1.26,1.26,0,0,1-.24.36,8.23,8.23,0,0,0-1.5,1.74,8,8,0,0,0-1.38,2.1,9.29,9.29,0,0,1-1.26,2.1c-.3.6-.72,1.2-1,1.8a20.73,20.73,0,0,0-.84,2,8,8,0,0,1-.36.72,12.5,12.5,0,0,0-.6,1.44,3.17,3.17,0,0,0-.36,1.08c-.12.36-.06.6-.18.9a17.71,17.71,0,0,1-.84,2A19.63,19.63,0,0,1,752.21,377.62Zm4.26-15.17c.06,0,.12.24.18.36a.76.76,0,0,0-.36-.06v.54h.12c.12-.18.12-.36.24-.48s.3-.3.42-.48c.48-.84,1-1.5,1.56-2.34a2.39,2.39,0,0,1,.42-.78A.6.6,0,0,0,759,359a6.35,6.35,0,0,0-.6.72c-.24.54-.72.9-.9,1.5-.06.12-.24.18-.36.3s-.12.12-.18.24a3.62,3.62,0,0,1-.48.48l-.42.24C756.23,362.51,756.41,362.39,756.47,362.45Zm2.58,11.33-.54-.17c-.3.48-.66,1.07-1,1.55.6-.11.48-1.13,1.5-.9l-.54-.23c0-.06,0-.06.06-.06s.3-.06.54-.12Zm2.46-5.51c-.84,1.5-1.62,3.06-2.34,4.56h.06a6.88,6.88,0,0,0,.48-.84c.18-.3.3-.66.48-1a5,5,0,0,0,.54-1,6.11,6.11,0,0,0,.48-.9,2.25,2.25,0,0,0,.3-.84Z" transform="translate(-552.75 -348.06)"/><path class="cls-1" d="M768.89,386.86a.36.36,0,0,1-.24.06.54.54,0,0,0-.3.06,1.31,1.31,0,0,1,.3.18c-.06.12-.18.12-.3.3s-.18,0-.3,0c.06.24-.06.42-.3.6s-.3.36-.54.24c-.06-.12,0-.3-.06-.42h-.06c0,.06-.06.06-.06.12,0,.24-.06.3-.3.3-.06,0-.18.12-.24.18s-.06.36,0,.36c.24.18.06.24-.06.3l-.6.6a.21.21,0,0,0-.12-.06l.3-.36a.19.19,0,0,1,.06-.12c-.6.3-1,.78-.84,1.08.06-.06.12-.18.18-.18s.3-.06.48-.06c0,.06.06.18,0,.3a.72.72,0,0,0-.48.12c.06.06.06.12.12.24a2.43,2.43,0,0,1,.54-.3c0-.36.24-.54.42-.78a13.19,13.19,0,0,0,1.56-1.62c.06,0,.12-.06.18-.06l.06.06c-.36.48-.72,1-1.2,1.5a7,7,0,0,1-1,.9,3.3,3.3,0,0,1-.42.54.64.64,0,0,0-.12.36,4.2,4.2,0,0,1,.6-.48c-.12.36-.48.54-.84.84a1.31,1.31,0,0,0-.18.3c.06,0,.06,0,.12.06.18-.12.36-.3.6-.48,0,.12.06.18,0,.24a7.19,7.19,0,0,0-.66.72c-.12.12-.18.3-.3.42l-.3.3a5,5,0,0,0-1.26,1.26,3.83,3.83,0,0,1-.9.78,2.34,2.34,0,0,1-1,.42c-.36.18-.78.36-1.2.6a2,2,0,0,1-1.2-.18c-.6-.12-.84-.66-1.26-1-.12-.06-.12-.24-.18-.36a1.31,1.31,0,0,0-.3-.48c-.06-.24-.24-.36-.3-.6a8.77,8.77,0,0,1,.42-3.24,16.75,16.75,0,0,1,.6-2.34c.24-1.08.54-2.1.84-3.24v-.48c-.06-.24,0-.42.24-.42s.36-.18.54.12.6.48.78.78a2.3,2.3,0,0,1,.66.66,1.51,1.51,0,0,1,.06.9,2.52,2.52,0,0,1-.24,1c-.18.72-.42,1.44-.66,2.22a3.67,3.67,0,0,0-.3.72c-.06.12-.12.18-.12.3.18.54-.18,1.08-.24,1.68s-.18,1.08-.24,1.68a4,4,0,0,0,1.68-.84c1-.84,2-1.68,2.94-2.58s1.8-1.8,2.7-2.64c.72-.66,1.5-1.32,2.28-2.1C769.13,386,769.19,386.32,768.89,386.86ZM760.13,380a1.65,1.65,0,0,1-.36-1.5,3.1,3.1,0,0,1,1.74-1.74c.06-.06.3-.06.3-.06.66-.06,1,.13,1.14.54a3,3,0,0,1,.18,1.92,2.9,2.9,0,0,1-1.32,1.38,1.06,1.06,0,0,1-1-.12A3.46,3.46,0,0,1,760.13,380ZM765,390.46c-.6,0-.72.72-1.26,1v.06l1-.36c0-.06-.06-.06-.06-.12s-.12.06-.24.06l-.06-.06A5.41,5.41,0,0,0,765,390.46Zm1.56-.12c.06,0,.06,0,.12.06a4.14,4.14,0,0,1-.24.6c-.06-.06-.18-.12-.24-.24Z" transform="translate(-552.75 -348.06)"/><path class="cls-1" d="M772.19,395.26a19.42,19.42,0,0,1,.78-1.86c.36-.36.66-.66,1.26-.48a3.25,3.25,0,0,1,.9.12.85.85,0,0,1,.72.42,1.36,1.36,0,0,1-.3,1.2c-.42.78-.3.66-.78,1.08a1.68,1.68,0,0,1-1.86.48C772.25,396.22,772,395.44,772.19,395.26Z" transform="translate(-552.75 -348.06)"/><path class="cls-1" d="M780.29,393.7s-.12-.12-.24-.06l-.24.36a3.11,3.11,0,0,1-.36-2l.48-2.46a11.46,11.46,0,0,0,.36-2c.12-.84.42-1.68.54-2.46s.3-1.62.42-2.46c.06-.12.06-.36.12-.42a.72.72,0,0,1,.54-.3c.6-.24,1.08.06,1.32,1a3.4,3.4,0,0,1,.18,1.56c0,.18-.12.36-.12.66.18-.24.42-.42.48-.6a5.46,5.46,0,0,1,1.08-1.26,6.08,6.08,0,0,1,1.86-1.68,2,2,0,0,1,2.34-.18,10.45,10.45,0,0,1,.84.72c.06.06.12.18.24.18a1.53,1.53,0,0,1,.48.72l-.06.3s-.36.18-1.14-.18a1.45,1.45,0,0,0-1.08.24,3.87,3.87,0,0,1-1,.66c-.18.06-.3.3-.42.48-.36.3-.72.6-1,.9l-1.14,1.5c-.42.6-.9,1.2-1.32,1.92s-.84,1.5-1.2,2.22-.3,1.14-.48,1.68-.12.84-.24,1.26c-.12.72-.36.84-.84.66S780.29,394.24,780.29,393.7Zm4.38-8.94a.19.19,0,0,1,.06-.12c.66-.66,1.2-1.38,1.8-2-.18-.48-.36.3-.54.18-.18.24-.24.48-.36.54-.6.18-.9.84-1.38,1.32a1.38,1.38,0,0,0-.48,1.26A2,2,0,0,1,784.67,384.76Zm1,0c.36-.18.54-.54.84-.84a2.26,2.26,0,0,0-.84.54,6.73,6.73,0,0,0-.78,1C785.33,385.48,785.45,384.88,785.69,384.76Z" transform="translate(-552.75 -348.06)"/><path class="cls-1" d="M813.05,388.84c-.3.36-.78.6-.84,1.2l-.24.12c.24.42-.24.48-.42.6s-.12.36-.36.48a.63.63,0,0,0,.36.18c-.24,0-.36.06-.48.06-.3,0-.42.24-.48.54a.83.83,0,0,1-.72.66.65.65,0,0,0-.42.18c.12.12.12.18.12.24l-.78.54c0,.06,0,.06.06.12a1.5,1.5,0,0,1,.42-.24.06.06,0,0,0,.06.06,3.19,3.19,0,0,1-2.64,1.14c.12.12.12.18.24.3-.6-.12-1,.48-1.44.18-.18-.06-.3,0-.48-.06a2.29,2.29,0,0,0-.78-.24,2.8,2.8,0,0,0-.6-.3c-.24-.12-.54-.24-.54-.36a1.62,1.62,0,0,0-.9-.66,1.73,1.73,0,0,1-1-1.2c-.12-.18-.24-.3-.3-.42a9.06,9.06,0,0,1-.54-1.08c.06-.12,0-.18-.12-.36l-.9.9h-.06c0-.06.06-.12.06-.24s-1,.78-1.2,1.08c-.06.12-.06.18-.12.18s-.24.24-.3.3a4.37,4.37,0,0,1-1.32,1.44,7.77,7.77,0,0,1-2.46,1,1,1,0,0,1-1.26-.72c-.06-.06-.06-.12-.06-.24a1,1,0,0,0-.12.3c.12.12-.12-.06-.24-.18a5.12,5.12,0,0,1-.66-.84,3.3,3.3,0,0,1-.24-2.88c.48-1.74,2.16-3.6,2-4-.6.18-1.08.24-1.26.06-.24-.42-.48-.72-.42-1a1.37,1.37,0,0,1,.54-.48,3.18,3.18,0,0,1,.9-.48,2.46,2.46,0,0,1,1.32,0c.3.24.78.36,1,.66.48.84.12,1.68-.54,3.18-.3.72-1,2-1.14,2.4s-.48,1.38,0,1.68a1.26,1.26,0,0,0,1.2-.18,8,8,0,0,0,1.62-1.32c.66-.6,1.14-1.2,1.8-1.86s1.14-1.32,1.74-1.92c.36-.36.66-.78,1-1.14.06-.12.3-.18.36-.36.12.48.24.18.48.06a3.69,3.69,0,0,1,.78-.06c0,.06.06.06.06.12l-.3.18c0,.06,0,.06-.06.12.42.12.9.12,1.38.24a.16.16,0,0,1-.18.18.06.06,0,0,1,.06.06c.42.06.48.24.36.6a3.07,3.07,0,0,0-.6,1.26,5.54,5.54,0,0,0-.36,3.54,1.8,1.8,0,0,0,.24.6c.66.66,2.28.24,3.3-.24a11.89,11.89,0,0,0,1.86-1.14c1.14-.78,2.28-1.62,3.36-2.52l.84-.78c0-.06.12-.06.18-.06s.12.06.06.12l-1,1.08a.52.52,0,0,0,.6-.24C812.57,388.78,812.81,388.84,813.05,388.84ZM792.53,394v0Zm1.14-4.26c.12-.36,1-1.92,1.26-2.52a3.11,3.11,0,0,0-1.14,1.8.85.85,0,0,0-.12.36C793.37,389.62,793.37,389.62,793.67,389.74Zm3.66,1.68c-.6.36-1.38.78-2,1.2C795.77,392.62,797.27,391.78,797.33,391.42Zm3.66-4.5c-.66.78-1.26,1.44-2,2.16C799.73,388.84,801.05,387.28,801,386.92Zm-.3,1.26c-.06.06-.06.12-.18.24a2.8,2.8,0,0,1-.3.6c0,.06-.12.06-.18.12v-.24a4.87,4.87,0,0,0-.6.54c.42.06.66.06.9-.24S800.93,388.54,800.69,388.18Zm8.16,3.72c-.18-.12-.3-.24-.36-.24a1.31,1.31,0,0,1-.3.24c.06.12.12.06.12.18Zm2.82-2-.12-.72-2,1.74c.06,0,.06,0,.12.06.48-.36,1-.84,1.44-1.26,0,.06,0,.06.06.06a7.32,7.32,0,0,1-1,1.08l.42-.12.66-.48C811.43,390.16,811.61,390,811.67,389.92Z" transform="translate(-552.75 -348.06)"/><text class="cls-2" transform="translate(68.42 65.36)">маникюр и педикюр</text><path class="cls-3" d="M588.65,408.64a5.73,5.73,0,0,0,9-7.16c-2-2.47-11.39-10.11-13.86-8.13S586.67,406.17,588.65,408.64Z" transform="translate(-552.75 -348.06)"/><path class="cls-4" d="M563,405.61a7.47,7.47,0,0,0,12.42,8.32c2.3-3.43,8.11-18.12,4.68-20.42S565.31,402.18,563,405.61Z" transform="translate(-552.75 -348.06)"/><path class="cls-5" d="M559,385.09a6.73,6.73,0,0,0,1,13.42c3.71-.28,17.35-4.29,17.08-8S562.69,384.81,559,385.09Z" transform="translate(-552.75 -348.06)"/><path class="cls-6" d="M571.45,370.24a6.06,6.06,0,0,0-9,8.13c2.25,2.48,12.66,9.93,15.13,7.68S573.69,372.71,571.45,370.24Z" transform="translate(-552.75 -348.06)"/><path class="cls-7" d="M589,370.84A5.45,5.45,0,1,0,578.28,369c-.51,3,0,14.47,2.94,15S588.51,373.81,589,370.84Z" transform="translate(-552.75 -348.06)"/><path class="cls-8" d="M648.11,352.19c-8.52,6.5-16.86,13.25-24.9,20.49L616.4,362c10-4.24,19.6-8.95,29.08-13.94l2.63,4.13Z" transform="translate(-552.75 -348.06)"/><polygon class="cls-8" points="69.24 16.88 70.15 18.3 46.65 33.28 45.74 31.86 69.24 16.88 69.24 16.88"/><path class="cls-9" d="M598.8,380.05c.17.27.22.18.4.45l.5.8c-.45,6.28-8.44,1.92-10.72,7.13.27-7.58,6.67-10.31,9.82-8.38Z" transform="translate(-552.75 -348.06)"/></svg>